<mxfile host="65bd71144e">
    <diagram id="EiSLCvPKQYwdrOFiZbw-" name="Page-1">
        <mxGraphModel dx="294" dy="297" grid="1" gridSize="10" guides="1" tooltips="1" connect="1" arrows="1" fold="1" page="1" pageScale="1" pageWidth="850" pageHeight="1100" math="0" shadow="0">
            <root>
                <mxCell id="0"/>
                <mxCell id="1" parent="0"/>
                <mxCell id="4" value="" style="group;fontColor=#660000;" vertex="1" connectable="0" parent="1">
                    <mxGeometry x="130" y="170" width="30" height="60" as="geometry"/>
                </mxCell>
                <mxCell id="5" style="edgeStyle=none;html=1;exitX=0.5;exitY=1;exitDx=0;exitDy=0;entryX=1;entryY=0;entryDx=0;entryDy=0;" edge="1" parent="4" source="2" target="3">
                    <mxGeometry relative="1" as="geometry"/>
                </mxCell>
                <mxCell id="2" value="&lt;font color=&quot;#990000&quot;&gt;P&lt;/font&gt;" style="ellipse;whiteSpace=wrap;html=1;aspect=fixed;fillColor=#fad7ac;strokeColor=#b46504;" vertex="1" parent="4">
                    <mxGeometry width="30" height="30" as="geometry"/>
                </mxCell>
                <mxCell id="3" value="C" style="ellipse;whiteSpace=wrap;html=1;aspect=fixed;fillColor=#b1ddf0;strokeColor=#10739e;fontColor=#990000;" vertex="1" parent="4">
                    <mxGeometry y="30" width="30" height="30" as="geometry"/>
                </mxCell>
                <mxCell id="6" value="angle:0" style="text;html=1;align=center;verticalAlign=middle;resizable=0;points=[];autosize=1;strokeColor=none;fillColor=none;fontColor=#990000;" vertex="1" parent="1">
                    <mxGeometry x="115" y="220" width="60" height="30" as="geometry"/>
                </mxCell>
                <mxCell id="7" value="" style="group;fontColor=#660000;" vertex="1" connectable="0" parent="1">
                    <mxGeometry x="50" y="100" width="30" height="60" as="geometry"/>
                </mxCell>
                <mxCell id="10" value="C" style="ellipse;whiteSpace=wrap;html=1;aspect=fixed;fillColor=#b1ddf0;strokeColor=#10739e;fontColor=#990000;" vertex="1" parent="7">
                    <mxGeometry y="30" width="30" height="30" as="geometry"/>
                </mxCell>
                <mxCell id="11" value="angle:90" style="text;html=1;align=center;verticalAlign=middle;resizable=0;points=[];autosize=1;strokeColor=none;fillColor=none;fontColor=#990000;" vertex="1" parent="1">
                    <mxGeometry x="30" y="155" width="70" height="30" as="geometry"/>
                </mxCell>
                <mxCell id="9" value="&lt;font color=&quot;#990000&quot;&gt;P&lt;/font&gt;" style="ellipse;whiteSpace=wrap;html=1;aspect=fixed;fillColor=#fad7ac;strokeColor=#b46504;" vertex="1" parent="1">
                    <mxGeometry x="80" y="130" width="30" height="30" as="geometry"/>
                </mxCell>
                <mxCell id="8" style="edgeStyle=none;html=1;exitX=0.5;exitY=1;exitDx=0;exitDy=0;entryX=1;entryY=0;entryDx=0;entryDy=0;" edge="1" parent="1" source="9" target="10">
                    <mxGeometry relative="1" as="geometry"/>
                </mxCell>
                <mxCell id="12" value="" style="group;fontColor=#660000;" vertex="1" connectable="0" parent="1">
                    <mxGeometry x="130" y="100" width="30" height="60" as="geometry"/>
                </mxCell>
                <mxCell id="14" value="&lt;font color=&quot;#990000&quot;&gt;P&lt;/font&gt;" style="ellipse;whiteSpace=wrap;html=1;aspect=fixed;fillColor=#fad7ac;strokeColor=#b46504;" vertex="1" parent="12">
                    <mxGeometry width="30" height="30" as="geometry"/>
                </mxCell>
                <mxCell id="16" value="angle:180" style="text;html=1;align=center;verticalAlign=middle;resizable=0;points=[];autosize=1;strokeColor=none;fillColor=none;fontColor=#990000;" vertex="1" parent="1">
                    <mxGeometry x="100" y="40" width="80" height="30" as="geometry"/>
                </mxCell>
                <mxCell id="15" value="C" style="ellipse;whiteSpace=wrap;html=1;aspect=fixed;fillColor=#b1ddf0;strokeColor=#10739e;fontColor=#990000;" vertex="1" parent="1">
                    <mxGeometry x="130" y="70" width="30" height="30" as="geometry"/>
                </mxCell>
                <mxCell id="13" style="edgeStyle=none;html=1;exitX=0.5;exitY=1;exitDx=0;exitDy=0;entryX=1;entryY=0;entryDx=0;entryDy=0;" edge="1" parent="1" source="14" target="15">
                    <mxGeometry relative="1" as="geometry"/>
                </mxCell>
                <mxCell id="17" value="C" style="ellipse;whiteSpace=wrap;html=1;aspect=fixed;fillColor=#b1ddf0;strokeColor=#10739e;fontColor=#990000;" vertex="1" parent="1">
                    <mxGeometry x="210" y="130" width="30" height="30" as="geometry"/>
                </mxCell>
                <mxCell id="18" value="angle:270" style="text;html=1;align=center;verticalAlign=middle;resizable=0;points=[];autosize=1;strokeColor=none;fillColor=none;fontColor=#990000;" vertex="1" parent="1">
                    <mxGeometry x="185" y="155" width="80" height="30" as="geometry"/>
                </mxCell>
                <mxCell id="19" value="&lt;font color=&quot;#990000&quot;&gt;P&lt;/font&gt;" style="ellipse;whiteSpace=wrap;html=1;aspect=fixed;fillColor=#fad7ac;strokeColor=#b46504;" vertex="1" parent="1">
                    <mxGeometry x="180" y="130" width="30" height="30" as="geometry"/>
                </mxCell>
                <mxCell id="20" style="edgeStyle=none;html=1;exitX=0.5;exitY=1;exitDx=0;exitDy=0;entryX=1;entryY=0;entryDx=0;entryDy=0;" edge="1" parent="1" source="19" target="17">
                    <mxGeometry relative="1" as="geometry"/>
                </mxCell>
            </root>
        </mxGraphModel>
    </diagram>
</mxfile>